# Blender v2.76 (sub 0) OBJ File: ''
# www.blender.org
mtllib cube.mtl
o Cube
v 1.000000 -1.000000 -1.000000
v 1.000000 -1.000000 1.000000
v -1.000000 -1.000000 1.000000
v -1.000000 -1.000000 -1.000000
v 3.930940 3.435953 -2.413386
v 0.999999 1.000000 1.000001
v -1.000000 1.000000 1.000000
v -1.000000 1.000000 -1.000000
v 0.611176 0.087871 2.000954
v 0.416085 0.087871 2.020168
v 0.228492 0.087871 2.077074
v 0.055605 0.087871 2.169484
v -0.095931 0.087871 2.293847
v -0.220294 0.087871 2.445384
v -0.312704 0.087871 2.618270
v -0.369610 0.087871 2.805863
v -0.388824 0.087871 3.000954
v -0.369610 0.087871 3.196044
v -0.312704 0.087871 3.383637
v -0.220294 0.087871 3.556524
v -0.095931 0.087871 3.708061
v 0.055605 0.087871 3.832423
v 0.228492 0.087871 3.924833
v 0.416085 0.087871 3.981739
v 0.611176 0.087871 4.000954
v 0.806266 0.087871 3.981739
v 0.993859 0.087871 3.924833
v 1.166746 0.087871 3.832423
v 1.318283 0.087871 3.708060
v 1.442646 0.087871 3.556523
v 1.535055 0.087871 3.383636
v 1.591961 0.087871 3.196043
v 1.611176 0.087871 3.000953
v 1.591961 0.087871 2.805862
v 1.535055 0.087871 2.618269
v 1.442644 0.087871 2.445382
v 1.318281 0.087871 2.293846
v 1.166745 0.087871 2.169483
v 0.993858 0.087871 2.077074
v 0.806264 0.087871 2.020168
vt 0.255400 0.765954
vt 0.255400 1.000000
vt 0.000000 1.000000
vt 1.000000 0.661511
vt 0.764377 0.726059
vt 0.675653 0.515872
vt 0.675653 0.069911
vt 0.675653 0.709051
vt 0.343267 0.199436
vt 0.343267 0.709051
vt 0.598667 0.709051
vt 0.598667 0.943097
vt 0.931053 0.960105
vt 0.675653 0.960105
vt 0.675653 0.726059
vt 0.000000 0.205306
vt 0.116687 0.000000
vt 0.343267 0.102333
vt 0.000000 0.765954
vt 1.000000 0.000000
vt 0.446967 0.000000
vt 0.343267 0.943097
vt 0.931053 0.726059
vt 0.343267 0.765954
vn 0.000000 -1.000000 0.000000
vn 0.000000 1.000000 0.000000
vn 0.815900 -0.408800 0.408800
vn -0.000000 0.000000 1.000000
vn -1.000000 -0.000000 -0.000000
vn 0.000000 0.000000 -1.000000
vn -0.337400 0.878800 0.337400
vn 1.000000 0.000000 0.000000
vn -0.185200 -0.185200 -0.965100
usemtl Material
s off
f 2/1/1 3/2/1 4/3/1
f 8/4/2 7/5/2 6/6/2
f 1/7/3 5/8/3 6/9/3
f 6/10/4 7/11/4 3/12/4
f 3/13/5 7/14/5 8/15/5
f 1/16/6 4/17/6 8/18/6
f 1/19/1 2/1/1 4/3/1
f 5/20/7 8/4/7 6/6/7
f 2/21/8 1/7/8 6/9/8
f 2/22/4 6/10/4 3/12/4
f 4/23/5 3/13/5 8/15/5
f 5/24/9 1/16/9 8/18/9
l 10 9
l 11 10
l 12 11
l 13 12
l 14 13
l 15 14
l 16 15
l 17 16
l 18 17
l 19 18
l 20 19
l 21 20
l 22 21
l 23 22
l 24 23
l 25 24
l 26 25
l 27 26
l 28 27
l 29 28
l 30 29
l 31 30
l 32 31
l 33 32
l 34 33
l 35 34
l 36 35
l 37 36
l 38 37
l 39 38
l 40 39
l 9 40
